<svg xmlns="http://www.w3.org/2000/svg" width="176" height="202" viewBox="0 0 176 202" fill="none"><g clip-path="url(#clip0_29_283)"><path fill-rule="evenodd" clip-rule="evenodd" d="M165.7 101.5C165.7 156.7 131.8 201.4 110.4 201.4C89.0002 201.4 88.2002 156.7 88.2002 101.5C88.2002 46.3001 87.8002 1.6001 109.2 1.6001C130.6 1.6001 165.7 46.3001 165.7 101.5Z" fill="url(#paint0_linear_29_283)"></path><path fill-rule="evenodd" clip-rule="evenodd" d="M0.600098 100.7C0.600098 155.9 34.5001 200.6 55.9001 200.6C77.3001 200.6 78.0001 155.9 78.0001 100.7C78.0001 45.5 78.4001 0.800049 57.0001 0.800049C35.6001 0.800049 0.600098 45.6 0.600098 100.7Z" fill="url(#paint1_linear_29_283)"></path><path fill-rule="evenodd" clip-rule="evenodd" d="M105.2 0C111.4 0 119 3.7 126.8 10.4C143.6 32.2 145 83.9 117.8 129.2C91.0001 173.9 96.5001 195.5 97.4001 201.4C96.3001 201 95.3001 200.5 94.3001 199.7C93.5001 198.9 92.6001 197.7 91.4001 195.9C84.8001 184 88.8001 161.2 88.8001 103.9C88.8001 103.2 88.8001 102.5 88.8001 101.8C88.8001 101.1 88.8001 100.5 88.8001 99.8C88.8001 54.2 85.4001 15.8 96.2001 3.9C98.0001 2.1 100.2 0.9 102.9 0.2C103.7 0.1 104.4 0 105.2 0Z" fill="url(#paint2_linear_29_283)"></path><path fill-rule="evenodd" clip-rule="evenodd" d="M102.2 0.300049C106.4 2.60005 85.5999 17.9 117 70.1C149.8 124.6 141 190.7 111.6 200.9C107.8 201.7 104.3 202 101.2 202C100.4 202 99.6999 201.9 98.9999 201.8C97.5999 201.5 96.2999 200.9 95.0999 200.2C81.7999 191.2 88.8999 148.6 88.8999 99.7C88.8999 85.1 88.5999 71.3 88.3999 58.8C88.8999 35.8 90.2999 18.3 93.1999 8.60005C95.2999 4.10005 98.1999 1.20005 102.2 0.300049Z" fill="url(#paint3_linear_29_283)"></path><path fill-rule="evenodd" clip-rule="evenodd" d="M102.3 0.300049C106.5 2.50005 85.6001 17.9 117 70.1C123 80.1 127.7 90.6 131 100.9C127.7 110.4 123.4 119.9 117.8 129.1C91.1001 173.6 96.4001 195.2 97.4001 201.2C96.6001 200.9 95.8001 200.6 95.1001 200.1C94.9001 200 94.8001 199.9 94.6001 199.8L94.3001 199.6C93.5001 198.8 92.6001 197.6 91.4001 195.8C84.8001 183.9 88.8001 161.1 88.8001 103.8C88.8001 103.1 88.8001 102.4 88.8001 101.7C88.8001 101 88.8001 100.4 88.8001 99.7C88.8001 98.2 88.8001 96.6 88.8001 95.1C88.8001 94.3 88.8001 93.5 88.8001 92.7C88.8001 90 88.7001 87.4 88.7001 84.8C88.6001 78.1 88.5001 71.6 88.4001 65.4C88.4001 63.6 88.3001 61.7001 88.3001 59.9001V58.8C88.8001 35.8 90.1001 18.3 93.1001 8.60005C93.5001 7.80005 93.9001 7.00005 94.3001 6.30005C94.5001 6.00005 94.7001 5.70005 94.9001 5.40005L94.8001 5.60005C95.0001 5.50005 95.0001 5.40005 95.1001 5.30005L95.0001 5.50005C95.1001 5.40005 95.2001 5.30005 95.3001 5.10005L95.2001 5.30005C95.3001 5.20005 95.4001 5.10005 95.4001 5.00005L95.3001 5.10005C95.4001 4.90005 95.5001 4.80005 95.7001 4.60005L95.4001 4.90005C95.5001 4.70005 95.6001 4.60005 95.8001 4.40005L95.7001 4.50005C95.8001 4.40005 95.9001 4.30005 96.0001 4.20005L95.8001 4.40005C95.9001 4.30005 96.0001 4.20005 96.1001 4.10005L96.0001 4.20005C96.0001 4.10005 96.1001 4.00005 96.2001 3.90005L96.3001 3.80005C98.0001 2.20005 100 1.00005 102.3 0.300049Z" fill="#93F4FF"></path><path fill-rule="evenodd" clip-rule="evenodd" d="M61.7998 0C55.6998 0 47.9998 3.7 40.1998 10.4C23.3998 32.2 21.9998 83.9 49.1998 129.2C75.9998 173.9 70.4998 195.5 69.5998 201.4C70.6998 201 71.6998 200.5 72.6998 199.7C73.4998 198.9 74.3998 197.7 75.5998 195.9C82.1998 184 78.1998 161.2 78.1998 103.9C78.1998 103.2 78.1998 102.5 78.1998 101.8C78.1998 101.1 78.1998 100.5 78.1998 99.8C78.1998 54.2 81.5998 15.8 70.7998 3.9C68.9998 2.1 66.7998 0.9 64.0998 0.2C63.2998 0.1 62.5998 0 61.7998 0Z" fill="url(#paint4_linear_29_283)"></path><path fill-rule="evenodd" clip-rule="evenodd" d="M64.7998 0.300049C60.5998 2.60005 81.3998 17.9 49.9998 70.1C17.1998 124.6 25.9998 190.7 55.3998 200.9C59.1998 201.7 62.6998 202 65.7998 202C66.5998 202 67.2998 201.9 67.9998 201.8C69.3998 201.5 70.6998 200.9 71.8998 200.2C85.1998 191.2 78.0998 148.6 78.0998 99.7C78.0998 85.1 78.3998 71.3 78.5998 58.8C78.0998 35.8 76.6998 18.3 73.7998 8.60005C71.6998 4.10005 68.7998 1.20005 64.7998 0.300049Z" fill="url(#paint5_linear_29_283)"></path><path fill-rule="evenodd" clip-rule="evenodd" d="M64.7 0.300049C60.6 2.60005 81.4 17.9 50 70.1C44 80.1 39.3 90.6 36 100.9C39.3 110.4 43.6 119.9 49.2 129.1C75.9 173.6 70.6 195.2 69.6 201.2C70.4 200.9 71.2 200.6 71.9 200.1C72.1 200 72.2 199.9 72.4 199.8L72.7 199.6C73.5 198.8 74.4 197.6 75.6 195.8C82.2 183.9 78.2 161.1 78.2 103.8C78.2 103.1 78.2 102.4 78.2 101.7C78.2 101 78.2 100.4 78.2 99.7C78.2 98.2 78.2 96.6 78.2 95.1C78.2 94.3 78.2 93.5 78.2 92.7C78.2 90 78.3 87.4 78.3 84.8C78.4 78.1 78.5 71.6 78.6 65.4C78.6 63.6 78.7 61.7001 78.7 59.9001V58.8C78.2 35.8 76.9 18.3 73.9 8.60005C73.5 7.80005 73.1 7.00005 72.7 6.30005C72.5 6.00005 72.3 5.70005 72.1 5.40005L72.2 5.60005C72.1 5.50005 72 5.30005 71.9 5.20005L72 5.50005C71.9 5.40005 71.8 5.30005 71.7 5.10005L71.8 5.30005C71.7 5.20005 71.6 5.10005 71.6 5.00005L71.7 5.10005C71.6 4.90005 71.5 4.80005 71.3 4.60005L71.6 4.90005C71.5 4.70005 71.4 4.60005 71.2 4.40005L71.3 4.50005C71.2 4.40005 71.1 4.30005 71 4.20005L71.2 4.40005C71.1 4.30005 71 4.20005 70.9 4.10005L71 4.20005C71 4.10005 70.9 4.00005 70.8 3.90005L70.7 3.80005C69 2.20005 67 1.00005 64.7 0.300049Z" fill="#93F4FF"></path></g><defs><linearGradient id="paint0_linear_29_283" x1="120.366" y1="12.4671" x2="131.455" y2="186.622" gradientUnits="userSpaceOnUse"><stop stop-color="#32E9FB"></stop><stop offset="1" stop-color="#A976F9"></stop></linearGradient><linearGradient id="paint1_linear_29_283" x1="45.928" y1="11.6918" x2="34.8391" y2="185.847" gradientUnits="userSpaceOnUse"><stop stop-color="#32E9FB"></stop><stop offset="1" stop-color="#A976F9"></stop></linearGradient><linearGradient id="paint2_linear_29_283" x1="113.287" y1="194.188" x2="113.287" y2="0.834256" gradientUnits="userSpaceOnUse"><stop stop-color="#9DBCFF"></stop><stop offset="1" stop-color="#72E7FF"></stop></linearGradient><linearGradient id="paint3_linear_29_283" x1="112.439" y1="203.51" x2="112.439" y2="102.67" gradientUnits="userSpaceOnUse"><stop stop-color="#9DBCFF"></stop><stop offset="1" stop-color="#72E7FF"></stop></linearGradient><linearGradient id="paint4_linear_29_283" x1="53.7172" y1="194.188" x2="53.7172" y2="0.834256" gradientUnits="userSpaceOnUse"><stop stop-color="#9DBCFF"></stop><stop offset="1" stop-color="#72E7FF"></stop></linearGradient><linearGradient id="paint5_linear_29_283" x1="54.5586" y1="203.51" x2="54.5586" y2="102.67" gradientUnits="userSpaceOnUse"><stop stop-color="#9DBCFF"></stop><stop offset="1" stop-color="#72E7FF"></stop></linearGradient><clipPath id="clip0_29_283"><rect width="176" height="202" fill="white"></rect></clipPath></defs></svg>